<svg width="702" height="702" viewBox="0 0 702 702" fill="none" xmlns="http://www.w3.org/2000/svg">
<path fill-rule="evenodd" clip-rule="evenodd" d="M389.46 236.387L365.727 301.364L296.725 341.136V362.385L222.54 424.641L260.935 528.646H307.163L283.672 590.999H486.23L501.056 550.411H412.129L419.741 529.569H508.668L523.994 487.607H435.066L442.679 466.765H531.606L546.934 424.801H458.006L465.619 403.959H554.546L569.871 361.997H480.944L488.556 341.155H577.483L592.811 299.193H503.884L511.496 278.351H600.424L615.751 236.387H389.46ZM353.149 341.136H388.396L380.583 361.978H317.022L353.149 341.136Z" fill="#9E8C5C"/>
<path fill-rule="evenodd" clip-rule="evenodd" d="M85.9575 236.387L215.479 590.999H261.283L276.592 549.828H245.464L196.954 417.251L274.494 351.269V330.02L333.572 294.772L312.246 236.387H85.9575Z" fill="#9E8C5C"/>
<path fill-rule="evenodd" clip-rule="evenodd" d="M435.018 111.658L397.073 215.544H623.364L661.306 111.658H435.018Z" fill="#2C673C"/>
<path fill-rule="evenodd" clip-rule="evenodd" d="M40.4028 111.658L78.3451 215.544H304.634L266.691 111.658H40.4028Z" fill="#EE732E"/>
</svg>
