<svg width="590" height="600" viewBox="0 0 590 600" fill="none" xmlns="http://www.w3.org/2000/svg">
<path fill-rule="evenodd" clip-rule="evenodd" d="M328.185 108.418L307.555 164.899L247.576 199.469V217.94L183.092 272.055L216.466 362.459H256.649L236.23 416.659H412.3L425.188 381.378H347.889L354.506 363.261H431.804L445.125 326.787H367.827L374.444 308.67H451.742L465.066 272.194H387.767L394.384 254.077H471.683L485.004 217.603H407.705L414.322 199.486H491.621L504.944 163.011H427.646L434.262 144.895H511.561L524.884 108.418H328.185ZM296.622 199.469H327.26L320.468 217.586H265.219L296.622 199.469Z" fill="#9E8C5C"/>
<path fill-rule="evenodd" clip-rule="evenodd" d="M64.3699 108.418L176.954 416.659H216.768L230.075 380.871H203.018L160.851 265.631L228.252 208.278V189.807L279.604 159.169L261.067 108.418H64.3699Z" fill="#9E8C5C"/>
<path fill-rule="evenodd" clip-rule="evenodd" d="M367.784 0L334.801 90.3011H531.501L564.482 0H367.784Z" fill="#2C673C"/>
<path fill-rule="evenodd" clip-rule="evenodd" d="M24.7722 0L57.7529 90.3011H254.45L221.47 0H24.7722Z" fill="#EE732E"/>
<path d="M43.4591 489.763L33.1622 573.5H32.8594L22.8654 489.763H0.000244141L18.3226 597.88H47.699L66.0213 489.763H43.4591ZM76.9549 597.88H122.382V578.194H99.0629V551.241H121.777V531.556H99.0629V509.448H122.382V489.763H76.9549V597.88ZM182.332 565.929H182.029L163.253 489.763H135.239V597.88H156.136V522.319H156.439L175.518 597.88H203.229V489.763H182.332V565.929ZM217.134 597.88H262.561V578.194H239.242V551.241H261.956V531.556H239.242V509.448H262.561V489.763H217.134V597.88ZM330.521 597.88V578.194H300.388L330.363 509.448V489.763H276.764V509.448H302.962L276.463 578.194V597.88H330.521ZM365.71 597.88V489.763H343.602V597.88H365.71ZM399.181 597.88L401.452 578.8H416.746L419.32 597.88H442.185L423.863 489.763H394.487L376.164 597.88H399.181ZM409.326 507.933H409.629L414.323 559.115H403.723L409.326 507.933ZM474.881 597.88H496.989V551.241H519.249V531.556H496.989V509.448H520.309V489.763H474.881V597.88ZM533.612 574.56C533.612 592.428 541.335 600 561.474 600C581.614 600 589.336 592.428 589.336 574.56V551.564H567.228V575.469C567.228 578.649 564.503 580.314 561.474 580.314C557.537 580.314 555.72 578.649 555.72 572.743V514.899C555.72 508.993 557.537 507.328 561.474 507.328C564.503 507.328 567.228 508.993 567.228 512.173V531.839H589.336V513.082C589.336 495.214 581.614 487.643 561.474 487.643C541.335 487.643 533.612 495.214 533.612 513.082V574.56Z" fill="#9E8C5C"/>
</svg>
